# xmcd
#
# Track frame offsets:
#	150
#	6146
#	11560
#	18510
#	25266
#	43070
#	59463
#	81528
#	126950
#	141543
#	155724
#	167006
#	179071
#
# Disc length: 2681 seconds
#
# Revision: 0
# Processed by: cddbd v1.5.1PL0 Copyright (c) Steve Scherf et al.
# Submitted via: EasyCDDAExtractor 4.5.0.2
#
DISCID=b80a770d
DTITLE=диажояои
DYEAR=1900
DGENRE=
TTITLE0=тяацоуди цемехкиым
TTITLE1=еоятастийо
TTITLE2=елбатияио тоу цалоу
TTITLE3=елбатияио тоу цалоу 2
TTITLE4=BISKAYA
TTITLE5=DOLANNES MELODY
TTITLE6=I JUST CALLED
TTITLE7=BLU DANUBE
TTITLE8=BLUE TANGO
TTITLE9=MAMBO GITANO
TTITLE10=CHARLESTON
TTITLE11=HULLY GULLY
TTITLE12=VIANA LA FIESTA
EXTD=
EXTT0=
EXTT1=
EXTT2=
EXTT3=
EXTT4=
EXTT5=
EXTT6=
EXTT7=
EXTT8=
EXTT9=
EXTT10=
EXTT11=
EXTT12=
PLAYORDER=
